<svg width="22" height="18" viewBox="0 0 22 18" fill="none" xmlns="http://www.w3.org/2000/svg">
<path d="M8 1.46004C8.97019 1.15248 9.98223 0.997298 11 1.00004C15.182 1.00004 18.028 3.50004 19.725 5.70404C20.575 6.81004 21 7.36104 21 9.00004C21 10.64 20.575 11.191 19.725 12.296C18.028 14.5 15.182 17 11 17C6.818 17 3.972 14.5 2.275 12.296C1.425 11.192 1 10.639 1 9.00004C1 7.36004 1.425 6.80904 2.275 5.70404C2.79336 5.02674 3.37061 4.39662 4 3.82104" stroke="#3E3E3E" stroke-width="1.5" stroke-linecap="round"/>
<path d="M14 9.00003C14 9.79568 13.6839 10.5587 13.1213 11.1214C12.5587 11.684 11.7956 12 11 12C10.2044 12 9.44129 11.684 8.87868 11.1214C8.31607 10.5587 8 9.79568 8 9.00003C8 8.20438 8.31607 7.44132 8.87868 6.87871C9.44129 6.3161 10.2044 6.00003 11 6.00003C11.7956 6.00003 12.5587 6.3161 13.1213 6.87871C13.6839 7.44132 14 8.20438 14 9.00003Z" stroke="#3E3E3E" stroke-width="1.5"/>
</svg>
