<svg width="1920" height="1080" viewBox="0 0 1920 1080" fill="none" xmlns="http://www.w3.org/2000/svg">
<path d="M928 445.233L733 412.142L750 627.739L928 445.233Z" fill="#FFB2E6"/>
<path d="M750 627.739L982 682.892L928 445.233L750 627.739Z" fill="#F490EE"/>
<path d="M928 445.233L739 253.703L733 412.142L928 445.233Z" fill="#FCA4E8"/>
<path d="M502 215.597L511 456.264L733 412.142L502 215.597Z" fill="#E67DF7"/>
<path d="M733 412.142L511 456.264L750 627.739L733 412.142Z" fill="#E077FB"/>
<path d="M1185 240.667L940 197.547L928 445.233L1185 240.667Z" fill="#F490EE"/>
<path d="M928 445.233L940 197.547L739 253.703L928 445.233Z" fill="#EB83F4"/>
<path d="M459 843.336L749 879.436L750 627.739L459 843.336Z" fill="#EB83F4"/>
<path d="M750 627.739L749 879.436L982 682.892L750 627.739Z" fill="#F797EC"/>
<path d="M749 879.436L971 865.397L982 682.892L749 879.436Z" fill="#D972FF"/>
<path d="M511 456.264L453 666.847L750 627.739L511 456.264Z" fill="#FEABE7"/>
<path d="M1224 686.903L1227 423.172L982 682.892L1224 686.903Z" fill="#FCA4E8"/>
<path d="M982 682.892L1227 423.172L928 445.233L982 682.892Z" fill="#F490EE"/>
<path d="M739 253.703L502 215.597L733 412.142L739 253.703Z" fill="#F08AF1"/>
<path d="M511 456.264L249 467.294L453 666.847L511 456.264Z" fill="#D972FF"/>
<path d="M735 0L502 215.597L739 253.703L735 0Z" fill="#F08AF1"/>
<path d="M1229 832.306L1224 686.903L982 682.892L1229 832.306Z" fill="#E67DF7"/>
<path d="M1227 423.172L1185 240.667L928 445.233L1227 423.172Z" fill="#F08AF1"/>
<path d="M453 666.847L459 843.336L750 627.739L453 666.847Z" fill="#EB83F4"/>
<path d="M976 0H735L940 197.547L976 0Z" fill="#FA9DEA"/>
<path d="M940 197.547L735 0L739 253.703L940 197.547Z" fill="#E67DF7"/>
<path d="M971 865.397L1229 832.306L982 682.892L971 865.397Z" fill="#F490EE"/>
<path d="M1224 686.903L1433 627.739L1227 423.172L1224 686.903Z" fill="#E67DF7"/>
<path d="M1185 240.667L976 0L940 197.547L1185 240.667Z" fill="#F08AF1"/>
<path d="M502 215.597L249 467.294L511 456.264L502 215.597Z" fill="#F490EE"/>
<path d="M453 666.847L227 843.336H459L453 666.847Z" fill="#E077FB"/>
<path d="M504 1083H745L749 879.436L504 1083Z" fill="#EB83F4"/>
<path d="M749 879.436L956 1083L971 865.397L749 879.436Z" fill="#FEABE7"/>
<path d="M971 865.397L1191 1083L1229 832.306L971 865.397Z" fill="#F490EE"/>
<path d="M745 1083L956 1083L749 879.436L745 1083Z" fill="#E67DF7"/>
<path d="M249 467.294L232 642.781L453 666.847L249 467.294Z" fill="#FCA4E8"/>
<path d="M1229 832.306L1433 627.739L1224 686.903L1229 832.306Z" fill="#F797EC"/>
<path d="M1227 423.172L1448 182.506L1185 240.667L1227 423.172Z" fill="#F797EC"/>
<path d="M735 0H448L502 215.597L735 0Z" fill="#E67DF7"/>
<path d="M502 215.597L212 240.667L249 467.294L502 215.597Z" fill="#F08AF1"/>
<path d="M1185 240.667L1208 0H976L1185 240.667Z" fill="#E077FB"/>
<path d="M1448 182.506L1208 0L1185 240.667L1448 182.506Z" fill="#FA9DEA"/>
<path d="M1433 627.739L1460 461.278L1227 423.172L1433 627.739Z" fill="#F797EC"/>
<path d="M459 843.336L504 1083L749 879.436L459 843.336Z" fill="#EB83F4"/>
<path d="M249 1083L504 1083L459 843.336L249 1083Z" fill="#F490EE"/>
<path d="M448 0L212 240.667L502 215.597L448 0Z" fill="#F490EE"/>
<path d="M249 467.294L0 441.222L232 642.781L249 467.294Z" fill="#F490EE"/>
<path d="M0 645.789L227 843.336L232 642.781L0 645.789Z" fill="#FFB2E6"/>
<path d="M232 642.781L227 843.336L453 666.847L232 642.781Z" fill="#E077FB"/>
<path d="M956 1083H1191L971 865.397L956 1083Z" fill="#F490EE"/>
<path d="M1229 832.306L1453 896.483L1433 627.739L1229 832.306Z" fill="#E67DF7"/>
<path d="M1460 461.278L1448 182.506L1227 423.172L1460 461.278Z" fill="#E077FB"/>
<path d="M1400 1083L1453 896.483L1229 832.306L1400 1083Z" fill="#D972FF"/>
<path d="M1433 627.739L1694 642.781L1460 461.278L1433 627.739Z" fill="#FEABE7"/>
<path d="M1448 182.506L1422 0H1208L1448 182.506Z" fill="#D972FF"/>
<path d="M448 0H200L212 240.667L448 0Z" fill="#FA9DEA"/>
<path d="M212 240.667L0 441.222L249 467.294L212 240.667Z" fill="#FA9DEA"/>
<path d="M227 843.336L249 1083L459 843.336H227Z" fill="#F08AF1"/>
<path d="M1191 1083H1400L1229 832.306L1191 1083Z" fill="#F797EC"/>
<path d="M0 184.511V441.222L212 240.667L0 184.511Z" fill="#FEABE7"/>
<path d="M227 843.336L0 879.436L249 1083L227 843.336Z" fill="#E67DF7"/>
<path d="M0 441.222V645.789L232 642.781L0 441.222Z" fill="#EB83F4"/>
<path d="M200 0L0 184.511L212 240.667L200 0Z" fill="#F490EE"/>
<path d="M1717 857.375L1694 642.781L1453 896.483L1717 857.375Z" fill="#F797EC"/>
<path d="M1453 896.483L1694 642.781L1433 627.739L1453 896.483Z" fill="#D972FF"/>
<path d="M1460 461.278L1679 186.517L1448 182.506L1460 461.278Z" fill="#F490EE"/>
<path d="M1448 182.506L1658 0H1422L1448 182.506Z" fill="#E67DF7"/>
<path d="M0 645.789V879.436L227 843.336L0 645.789Z" fill="#FEABE7"/>
<path d="M1694 642.781L1719 412.142L1460 461.278L1694 642.781Z" fill="#E67DF7"/>
<path d="M1719 412.142L1679 186.517L1460 461.278L1719 412.142Z" fill="#FFB2E6"/>
<path d="M200 0H0V184.511L200 0Z" fill="#E67DF7"/>
<path d="M1710 1083L1717 857.375L1453 896.483L1710 1083Z" fill="#F797EC"/>
<path d="M1694 642.781L1920 459.272L1719 412.142L1694 642.781Z" fill="#F08AF1"/>
<path d="M1920 0H1658L1679 186.517L1920 0Z" fill="#FCA4E8"/>
<path d="M1679 186.517L1658 0L1448 182.506L1679 186.517Z" fill="#FFB2E6"/>
<path d="M0 879.436V1083L249 1083L0 879.436Z" fill="#E077FB"/>
<path d="M1400 1083H1710L1453 896.483L1400 1083Z" fill="#F490EE"/>
<path d="M1920 672.864V459.272L1694 642.781L1920 672.864Z" fill="#FFB2E6"/>
<path d="M1719 412.142L1920 194.539L1679 186.517L1719 412.142Z" fill="#F797EC"/>
<path d="M1920 672.864L1694 642.781L1717 857.375L1920 672.864Z" fill="#D972FF"/>
<path d="M1920 835.314L1920 672.864L1717 857.375L1920 835.314Z" fill="#F490EE"/>
<path d="M1920 459.272L1920 194.539L1719 412.142L1920 459.272Z" fill="#F08AF1"/>
<path d="M1920 1083V835.314L1717 857.375L1920 1083Z" fill="#FA9DEA"/>
<path d="M1920 194.539L1920 0L1679 186.517L1920 194.539Z" fill="#FFB2E6"/>
<path d="M1710 1083L1920 1083L1717 857.375L1710 1083Z" fill="#E67DF7"/>
<path d="M928 445.233L733 412.142M928 445.233L750 627.739M928 445.233L982 682.892M928 445.233L739 253.703M928 445.233L940 197.547M928 445.233L1185 240.667M928 445.233L1227 423.172M733 412.142L750 627.739M733 412.142L739 253.703M733 412.142L511 456.264M733 412.142L502 215.597M750 627.739L982 682.892M750 627.739L511 456.264M750 627.739L749 879.436M750 627.739L459 843.336M750 627.739L453 666.847M982 682.892L749 879.436M982 682.892L971 865.397M982 682.892L1227 423.172M982 682.892L1224 686.903M982 682.892L1229 832.306M739 253.703L940 197.547M739 253.703L502 215.597M739 253.703L735 0M502 215.597L511 456.264M502 215.597L735 0M502 215.597L249 467.294M502 215.597L448 0M502 215.597L212 240.667M511 456.264L453 666.847M511 456.264L249 467.294M1185 240.667L940 197.547M1185 240.667L1227 423.172M1185 240.667L976 0M1185 240.667L1448 182.506M1185 240.667L1208 0M940 197.547L735 0M940 197.547L976 0M459 843.336L749 879.436M459 843.336L453 666.847M459 843.336H227M459 843.336L504 1083M459 843.336L249 1083M749 879.436L971 865.397M749 879.436L745 1083M749 879.436L504 1083M749 879.436L956 1083M971 865.397L1229 832.306M971 865.397L956 1083M971 865.397L1191 1083M453 666.847L249 467.294M453 666.847L227 843.336M453 666.847L232 642.781M1224 686.903L1227 423.172M1224 686.903L1229 832.306M1224 686.903L1433 627.739M1227 423.172L1433 627.739M1227 423.172L1448 182.506M1227 423.172L1460 461.278M249 467.294L232 642.781M249 467.294L212 240.667M249 467.294L0 441.222M735 0H976M735 0H448M1229 832.306L1191 1083M1229 832.306L1433 627.739M1229 832.306L1453 896.483M1229 832.306L1400 1083M976 0H1208M1433 627.739L1460 461.278M1433 627.739L1453 896.483M1433 627.739L1694 642.781M227 843.336L0 645.789M227 843.336L232 642.781M227 843.336L249 1083M227 843.336L0 879.436M504 1083H745M504 1083L249 1083M745 1083L956 1083M956 1083H1191M1191 1083H1400M232 642.781L0 441.222M232 642.781L0 645.789M1448 182.506L1208 0M1448 182.506L1460 461.278M1448 182.506L1422 0M1448 182.506L1679 186.517M1448 182.506L1658 0M448 0L212 240.667M448 0H200M212 240.667L200 0M212 240.667L0 441.222M212 240.667L0 184.511M1208 0H1422M1460 461.278L1694 642.781M1460 461.278L1679 186.517M1460 461.278L1719 412.142M249 1083L0 879.436M249 1083L0 1083V879.436M0 441.222V184.511M0 441.222V645.789M0 645.789V879.436M1453 896.483L1400 1083M1453 896.483L1694 642.781M1453 896.483L1717 857.375M1453 896.483L1710 1083M1400 1083H1710M1694 642.781L1717 857.375M1694 642.781L1719 412.142M1694 642.781L1920 459.272M1694 642.781L1920 672.864M1422 0H1658M200 0L0 184.511M200 0H0V184.511M1717 857.375L1710 1083M1717 857.375L1920 672.864M1717 857.375L1920 835.314M1717 857.375L1920 1083M1679 186.517L1719 412.142M1679 186.517L1658 0M1679 186.517L1920 0M1679 186.517L1920 194.539M1658 0H1920M1719 412.142L1920 459.272M1719 412.142L1920 194.539M1710 1083L1920 1083M1920 459.272V672.864M1920 459.272L1920 194.539M1920 0L1920 194.539M1920 672.864L1920 835.314M1920 835.314V1083" stroke="#E67DF7" stroke-linejoin="bevel"/>
</svg>
